<svg xmlns="http://www.w3.org/2000/svg" width="48" height="48" id="magnifier">
  <path d="M24 0C10.751 0 0 10.751 0 24s10.751 24 24 24 24-10.751 24-24S37.249 0 24 0zm0 1c12.708 0 23 10.292 23 23S36.708 47 24 47 1 36.708 1 24 11.292 1 24 1zm0 9.01c-3.859 0-7 3.14-7 7 0 3.345 2.36 6.147 5.5 6.836v2.166H22a.5.5 0 0 0-.5.5v8.978c0 1.378 1.121 2.5 2.5 2.5s2.5-1.122 2.5-2.5v-8.978a.5.5 0 0 0-.5-.5h-.5v-2.166c3.141-.69 5.5-3.491 5.5-6.836 0-3.86-3.141-7-7-7zm0 1c3.309 0 6 2.69 6 6a6.008 6.008 0 0 1-6 6.002c-3.309 0-6-2.693-6-6.002 0-3.31 2.691-6 6-6zm0 1c-2.757 0-5 2.243-5 5a5.007 5.007 0 0 0 5 5.002c2.757 0 5-2.245 5-5.002 0-2.757-2.243-5-5-5zm0 1c2.206 0 4 1.794 4 4a4.006 4.006 0 0 1-4 4.002c-2.206 0-4-1.796-4-4.002 0-2.206 1.794-4 4-4zm-.5 11.002h1v2h-1v-2zm-1 3h3v8.48c0 .827-.673 1.5-1.5 1.5s-1.5-.673-1.5-1.5v-8.48z"></path>
</svg>
